<?xml version="1.0" encoding="UTF-8" standalone="no"?>
<svg
   width="88"
   height="88"
   version="1.1"
   id="svg115"
   sodipodi:docname="favicon.svg"
   inkscape:version="1.1 (c68e22c387, 2021-05-23)"
   xmlns:inkscape="http://www.inkscape.org/namespaces/inkscape"
   xmlns:sodipodi="http://sodipodi.sourceforge.net/DTD/sodipodi-0.dtd"
   xmlns="http://www.w3.org/2000/svg"
   xmlns:svg="http://www.w3.org/2000/svg">
  <sodipodi:namedview
     id="namedview117"
     pagecolor="#ffffff"
     bordercolor="#666666"
     borderopacity="1.0"
     inkscape:pageshadow="2"
     inkscape:pageopacity="0.0"
     inkscape:pagecheckerboard="0"
     showgrid="false"
     inkscape:zoom="9.1171875"
     inkscape:cx="36.08569"
     inkscape:cy="55.225364"
     inkscape:window-width="2560"
     inkscape:window-height="1376"
     inkscape:window-x="0"
     inkscape:window-y="0"
     inkscape:window-maximized="1"
     inkscape:current-layer="g112"
     fit-margin-left="1"
     fit-margin-top="1"
     fit-margin-right="1"
     fit-margin-bottom="1" />
  <defs
     id="SvgjsDefs4524">
    <linearGradient
       id="linearGradient414">
      <stop
         id="stop410"
         stop-color="#7f00ff"
         offset="0" />
      <stop
         id="stop412"
         stop-color="#e100ff"
         offset="1" />
    </linearGradient>
    <linearGradient
       id="SvgjsLinearGradient4531">
      <stop
         id="SvgjsStop4532"
         stop-color="#7f00ff"
         offset="0" />
      <stop
         id="SvgjsStop4533"
         stop-color="#e100ff"
         offset="1" />
    </linearGradient>
  </defs>
  <g
     id="SvgjsG4525"
     fill="url(#SvgjsLinearGradient4531)"
     transform="matrix(1.0104909,0,0,1.0104909,-5.8214396,-7.7726958)"
     featurekey="symbolFeature-0">
    <g
       id="g112">
      <g
         id="g110"
         inkscape:export-filename="/home/stefan/Documents/IT/logos/favicon.png"
         inkscape:export-xdpi="96"
         inkscape:export-ydpi="96">
        <path
           fill="url(#SvgjsLinearGradient4531)"
           d="m 48.931,7.692 c -28.781,0 -43.17,14.251 -43.17,42.752 0,28.501 14.389,42.751 43.17,42.751 28.825,0 43.238,-14.25 43.238,-42.751 0,-28.501 -14.413,-42.752 -43.238,-42.752 z m 25.221,68.769 c -5.288,5.497 -13.694,8.246 -25.221,8.246 -11.436,0 -19.81,-2.748 -25.12,-8.246 -5.31,-5.496 -7.965,-14.169 -7.965,-26.017 0,-11.849 2.655,-20.522 7.965,-26.018 5.31,-5.497 13.684,-8.246 25.12,-8.246 11.527,0 19.933,2.749 25.221,8.246 5.287,5.496 7.931,14.169 7.931,26.018 0,11.848 -2.644,20.521 -7.931,26.017 z"
           id="path106" />
      </g>
    </g>
  </g>
</svg>
